<svg xmlns="http://www.w3.org/2000/svg" viewBox="0 0 64 64">
  <!-- The brand mark, as drawn in src/components/Logo.jsx: an immortelle
       inside a speech bubble. Keep the two in step. -->
  <path fill="#24463C" d="M17 3h30A14 14 0 0 1 61 17v19A14 14 0 0 1 47 50H31l-12.5 10.5c-1.3 1.1-3 .2-3-1.4V50A14 14 0 0 1 3 36V17A14 14 0 0 1 17 3z"/>
  <g fill="none" stroke="#B8D6B2" stroke-width="2.6" stroke-linecap="round" stroke-linejoin="round">
    <path d="M32 43V26"/>
    <path d="M32 37c-3-5-7-8-13-9.5"/>
    <path d="M32 35c3-5 7-8 13-9.5"/>
    <path d="M32 41c-3-.5-5-2.2-6-4.6"/>
    <path d="M32 40c3-.5 5-2.2 6-4.6"/>
  </g>
  <g fill="#EDD382">
    <circle cx="28.3" cy="21.5" r="4"/>
    <circle cx="35.7" cy="21.5" r="4"/>
    <circle cx="32" cy="15.5" r="4.3"/>
    <circle cx="13.5" cy="25.5" r="3.6"/>
    <circle cx="19.5" cy="21.8" r="3.6"/>
    <circle cx="44.5" cy="21.8" r="3.6"/>
    <circle cx="50.5" cy="25.5" r="3.6"/>
  </g>
</svg>
